<svg width="518" height="374" viewBox="0 0 518 374" fill="none" xmlns="http://www.w3.org/2000/svg">
<g clip-path="url(#clip0_11_834)">
<path d="M22.4491 188.569C28.0594 177.257 31.2326 167.404 29.5365 166.562C27.8404 165.721 21.9173 174.208 16.3069 185.521C10.6965 196.833 7.52341 206.685 9.21951 207.527C10.9156 208.369 16.8387 199.881 22.4491 188.569Z" fill="#E0E0E0"/>
<path d="M307.05 329.974C312.66 318.662 316.274 309.028 315.122 308.456C313.969 307.884 308.487 316.591 302.877 327.903C297.266 339.215 293.652 348.849 294.805 349.421C295.957 349.993 301.44 341.286 307.05 329.974Z" fill="#E0E0E0"/>
<path d="M154.113 272.788L143.539 264.052L114.434 299.315L125.009 308.05L154.113 272.788Z" fill="#F55F44"/>
<path opacity="0.05" d="M129.797 310.863L144.817 314.396L155.279 269.88L140.259 266.347L129.797 310.863Z" fill="black"/>
<path d="M131.468 311.256L144.817 314.396L155.279 269.88L141.93 266.74L131.468 311.256Z" fill="#F55F44"/>
<path d="M30.0442 165.538L8.71143 208.551L294.321 350.322L315.654 307.309L30.0442 165.538Z" fill="url(#paint0_linear_11_834)"/>
<path d="M294.829 349.298C289.238 346.615 5.12437 205.495 9.21913 207.527C24.9883 183.449 29.5361 166.562 29.5361 166.562L315.146 308.333C315.146 308.333 305.116 325.943 294.829 349.298Z" fill="#F5F5F5"/>
<path opacity="0.05" d="M177.972 240.243L154.427 228.555L134.11 269.52L157.655 281.207L177.972 240.243Z" fill="black"/>
<path d="M176.948 239.734L155.45 229.064L135.133 270.028L156.631 280.699L176.948 239.734Z" fill="#F55F44"/>
<path opacity="0.05" d="M172.853 237.702L158.521 230.588L138.204 271.553L152.536 278.667L172.853 237.702Z" fill="black"/>
<path d="M171.829 237.194L159.545 231.096L139.228 272.061L151.512 278.159L171.829 237.194Z" fill="#F55F44"/>
<path d="M170.175 369.317C171.227 369.317 172.08 368.464 172.08 367.411C172.08 366.358 171.227 365.505 170.175 365.505C169.123 365.505 168.27 366.358 168.27 367.411C168.27 368.464 169.123 369.317 170.175 369.317Z" fill="#DBDBDB"/>
<g opacity="0.5">
<path opacity="0.5" d="M21.0968 314.035H19.1431V325.111H21.0968V314.035Z" fill="#47E6B1"/>
<path opacity="0.5" d="M25.6558 320.55V318.596H14.5845V320.55H25.6558Z" fill="#47E6B1"/>
</g>
<g opacity="0.5">
<path opacity="0.5" d="M513.441 175.912H511.487V186.988H513.441V175.912Z" fill="#47E6B1"/>
<path opacity="0.5" d="M518 182.427V180.472H506.929V182.427H518Z" fill="#47E6B1"/>
</g>
<g opacity="0.5">
<path opacity="0.5" d="M32.819 38.44H30.8652V49.5159H32.819V38.44Z" fill="#47E6B1"/>
<path opacity="0.5" d="M37.3779 44.9552V43.0006H26.3067V44.9552H37.3779Z" fill="#47E6B1"/>
</g>
<g opacity="0.5">
<path opacity="0.5" d="M454.829 21.5003H452.875V32.5762H454.829V21.5003Z" fill="#47E6B1"/>
<path opacity="0.5" d="M459.388 28.0155V26.061H448.316V28.0155H459.388Z" fill="#47E6B1"/>
</g>
<path opacity="0.5" d="M8.00352 165.133C7.4651 164.898 7.03171 164.474 6.78583 163.94C6.53995 163.407 6.49876 162.802 6.67009 162.24C6.69782 162.154 6.71528 162.064 6.72212 161.974C6.73779 161.717 6.67015 161.461 6.52922 161.245C6.38829 161.029 6.18157 160.864 5.93967 160.775C5.69778 160.686 5.43357 160.677 5.18619 160.749C4.93881 160.822 4.72142 160.973 4.5662 161.179C4.51283 161.252 4.46825 161.331 4.43341 161.414C4.19892 161.953 3.77464 162.386 3.24133 162.632C2.70803 162.878 2.10293 162.92 1.54122 162.748C1.4551 162.72 1.36601 162.703 1.2758 162.696C1.01845 162.68 0.762894 162.748 0.546991 162.889C0.331087 163.03 0.166319 163.237 0.0770866 163.479C-0.0121459 163.721 -0.0210925 163.985 0.0515677 164.233C0.124228 164.48 0.274628 164.698 0.4805 164.853C0.553545 164.906 0.632634 164.951 0.716123 164.986C1.25453 165.22 1.68793 165.645 1.93381 166.178C2.17968 166.712 2.22087 167.317 2.04955 167.879C2.02182 167.965 2.00435 168.055 1.99751 168.145C1.98184 168.402 2.04949 168.658 2.19042 168.874C2.33135 169.09 2.53807 169.255 2.77997 169.344C3.02186 169.433 3.28607 169.442 3.53345 169.37C3.78083 169.297 3.99822 169.146 4.15344 168.94C4.20681 168.867 4.25139 168.788 4.28623 168.705C4.52072 168.166 4.945 167.732 5.4783 167.486C6.01161 167.24 6.61671 167.199 7.17842 167.371C7.26454 167.398 7.35363 167.416 7.44384 167.423C7.70119 167.438 7.95675 167.371 8.17266 167.23C8.38856 167.089 8.55334 166.882 8.64257 166.64C8.7318 166.398 8.74075 166.134 8.66809 165.886C8.59543 165.639 8.44501 165.421 8.23914 165.266C8.16609 165.213 8.087 165.168 8.00352 165.133Z" fill="#4D8AF0"/>
<path opacity="0.5" d="M120.019 36.7827C119.48 36.5481 119.047 36.1236 118.801 35.5901C118.555 35.0566 118.514 34.4512 118.685 33.8893C118.713 33.8031 118.73 33.714 118.737 33.6237C118.753 33.3663 118.685 33.1106 118.544 32.8946C118.403 32.6786 118.197 32.5138 117.955 32.4245C117.713 32.3352 117.449 32.3263 117.201 32.399C116.954 32.4717 116.737 32.6221 116.581 32.8281C116.528 32.9012 116.483 32.9803 116.449 33.0638C116.214 33.6025 115.79 34.036 115.256 34.282C114.723 34.528 114.118 34.5692 113.556 34.3978C113.47 34.3701 113.381 34.3526 113.291 34.3458C113.034 34.3301 112.778 34.3978 112.562 34.5387C112.346 34.6797 112.181 34.8865 112.092 35.1285C112.003 35.3705 111.994 35.6349 112.067 35.8823C112.139 36.1298 112.29 36.3473 112.496 36.5026C112.569 36.556 112.648 36.6006 112.731 36.6354C113.27 36.87 113.703 37.2945 113.949 37.828C114.195 38.3616 114.236 38.9669 114.065 39.5288C114.037 39.615 114.02 39.7041 114.013 39.7944C113.997 40.0518 114.065 40.3075 114.206 40.5235C114.346 40.7395 114.553 40.9043 114.795 40.9936C115.037 41.0829 115.301 41.0918 115.549 41.0191C115.796 40.9465 116.013 40.796 116.169 40.59C116.222 40.5169 116.267 40.4378 116.301 40.3543C116.536 39.8156 116.96 39.3821 117.493 39.1361C118.027 38.8901 118.632 38.8489 119.194 39.0203C119.28 39.048 119.369 39.0655 119.459 39.0724C119.716 39.088 119.972 39.0204 120.188 38.8794C120.404 38.7384 120.568 38.5316 120.658 38.2896C120.747 38.0476 120.756 37.7833 120.683 37.5358C120.611 37.2883 120.46 37.0708 120.254 36.9155C120.181 36.8621 120.102 36.8175 120.019 36.7827Z" fill="#4D8AF0"/>
<path opacity="0.5" d="M256.781 369.712C256.242 369.477 255.809 369.053 255.563 368.519C255.317 367.986 255.276 367.38 255.447 366.818C255.475 366.732 255.493 366.643 255.499 366.553C255.515 366.295 255.448 366.04 255.307 365.824C255.166 365.608 254.959 365.443 254.717 365.354C254.475 365.264 254.211 365.255 253.964 365.328C253.716 365.401 253.499 365.551 253.344 365.757C253.29 365.83 253.246 365.909 253.211 365.993C252.976 366.532 252.552 366.965 252.019 367.211C251.485 367.457 250.88 367.498 250.319 367.327C250.232 367.299 250.143 367.282 250.053 367.275C249.796 367.259 249.54 367.327 249.324 367.468C249.108 367.609 248.944 367.816 248.854 368.058C248.765 368.3 248.756 368.564 248.829 368.812C248.902 369.059 249.052 369.276 249.258 369.432C249.331 369.485 249.41 369.53 249.493 369.565C250.032 369.799 250.465 370.224 250.711 370.757C250.957 371.291 250.998 371.896 250.827 372.458C250.799 372.544 250.782 372.633 250.775 372.724C250.759 372.981 250.827 373.237 250.968 373.453C251.109 373.669 251.315 373.834 251.557 373.923C251.799 374.012 252.063 374.021 252.311 373.948C252.558 373.876 252.776 373.725 252.931 373.519C252.984 373.446 253.029 373.367 253.064 373.283C253.298 372.745 253.722 372.311 254.256 372.065C254.789 371.819 255.394 371.778 255.956 371.949C256.042 371.977 256.131 371.995 256.221 372.002C256.479 372.017 256.734 371.95 256.95 371.809C257.166 371.668 257.331 371.461 257.42 371.219C257.509 370.977 257.518 370.712 257.445 370.465C257.373 370.217 257.222 370 257.017 369.845C256.943 369.791 256.864 369.747 256.781 369.712Z" fill="#4D8AF0"/>
<path opacity="0.5" d="M494.555 293.186C496.713 293.186 498.462 291.436 498.462 289.277C498.462 287.118 496.713 285.368 494.555 285.368C492.397 285.368 490.647 287.118 490.647 289.277C490.647 291.436 492.397 293.186 494.555 293.186Z" fill="#F55F44"/>
<path opacity="0.5" d="M408.59 317.944C410.748 317.944 412.498 316.194 412.498 314.035C412.498 311.876 410.748 310.126 408.59 310.126C406.432 310.126 404.683 311.876 404.683 314.035C404.683 316.194 406.432 317.944 408.59 317.944Z" fill="#4D8AF0"/>
<path opacity="0.5" d="M67.3352 356.384C69.4933 356.384 71.2427 354.634 71.2427 352.475C71.2427 350.316 69.4933 348.566 67.3352 348.566C65.1772 348.566 63.4277 350.316 63.4277 352.475C63.4277 354.634 65.1772 356.384 67.3352 356.384Z" fill="#47E6B1"/>
<path opacity="0.5" d="M267.92 7.8183C270.078 7.8183 271.828 6.06811 271.828 3.90915C271.828 1.75019 270.078 0 267.92 0C265.762 0 264.013 1.75019 264.013 3.90915C264.013 6.06811 265.762 7.8183 267.92 7.8183Z" fill="#F55F44"/>
<path d="M133.437 232.92L117.807 256.375C117.807 256.375 123.017 280.481 238.288 279.83C353.559 279.178 362.677 256.375 362.677 256.375L341.186 225.102L275.409 180.147L133.437 232.92Z" fill="#1B85D0"/>
<path opacity="0.15" d="M133.437 232.92L117.807 256.375C117.807 256.375 123.017 280.481 238.288 279.83C353.559 279.178 362.677 256.375 362.677 256.375L341.186 225.102L275.409 180.147L133.437 232.92Z" fill="black"/>
<path d="M465.9 145.942L260.756 236.503L10.6768 145.942L239.917 41.6976L352.446 93.6046L356.477 95.4679L465.9 145.942Z" fill="#1B85D0"/>
<path opacity="0.15" d="M465.9 145.942L260.756 236.503L10.6768 145.942L239.917 41.6976L352.446 93.6046L356.477 95.4679L465.9 145.942Z" fill="black"/>
<path d="M360.723 167.65L356.816 167.885L352.446 93.6046L356.477 95.4679L360.723 167.65Z" fill="#F5F5F5"/>
<path d="M136.042 145.616L117.807 256.375C117.807 256.375 248.708 214.026 362.677 256.375L345.744 139.101C345.744 139.101 192.701 120.206 136.042 145.616Z" fill="#1B85D0"/>
<path d="M360.397 190.245C370.828 190.245 379.284 184.411 379.284 177.215C379.284 170.018 370.828 164.184 360.397 164.184C349.967 164.184 341.511 170.018 341.511 177.215C341.511 184.411 349.967 190.245 360.397 190.245Z" fill="#F5F5F5"/>
</g>
<defs>
<linearGradient id="paint0_linear_11_834" x1="151.516" y1="279.437" x2="172.863" y2="236.431" gradientUnits="userSpaceOnUse">
<stop stop-color="#808080" stop-opacity="0.25"/>
<stop offset="0.53514" stop-color="#808080" stop-opacity="0.12"/>
<stop offset="1" stop-color="#808080" stop-opacity="0.1"/>
</linearGradient>
<clipPath id="clip0_11_834">
<rect width="518" height="374" fill="white"/>
</clipPath>
</defs>
</svg>
