<svg width="55" height="55" viewBox="0 0 55 55" fill="none" xmlns="http://www.w3.org/2000/svg">
<g clip-path="url(#clip0_19_198)">
<path d="M14.537 47.1053L15.4361 47.5497C19.183 49.7716 23.3791 50.8085 27.5754 50.8085C40.7636 50.8085 51.5539 40.1432 51.5539 27.1078C51.5539 20.8864 49.0061 14.813 44.5103 10.3691C40.0142 5.92512 34.0194 3.40701 27.5754 3.40701C14.3872 3.40701 3.5967 14.0723 3.74666 27.256C3.74666 31.6997 5.09545 35.9957 7.34336 39.6987L7.94278 40.5877L5.54512 49.3273L14.537 47.1053Z" fill="#00E676"/>
<path d="M47.0579 7.999C41.9624 2.81456 34.9188 0 27.7252 0C12.439 0 0.149961 12.2947 0.299707 27.2558C0.299707 31.996 1.6485 36.5882 3.89662 40.7357L0 54.808L14.537 51.1048C18.5833 53.3268 23.0792 54.3638 27.5754 54.3638C42.7118 54.3638 55.0009 42.0688 55.0009 27.108C55.0009 19.8495 52.1533 13.0354 47.0581 7.999H47.0579ZM27.7252 49.7718C23.6788 49.7718 19.6324 48.7351 16.1855 46.6612L15.2863 46.2168L6.5942 48.4386L8.84211 39.9954L8.2427 39.1065C1.6485 28.5894 4.79574 14.6648 15.5861 8.14701C26.3764 1.6294 40.3139 4.74019 46.9081 15.4055C53.5021 26.0708 50.3549 39.847 39.5648 46.3648C36.1176 48.5867 31.9215 49.7716 27.7252 49.7716V49.7718ZM40.9133 33.3296L39.2648 32.5889C39.2648 32.5889 36.8672 31.5519 35.3684 30.8113C35.2185 30.8113 35.0687 30.663 34.9188 30.663C34.4691 30.663 34.1694 30.8113 33.8697 30.9595C33.8697 30.9595 33.7199 31.1075 31.6218 33.4776C31.4718 33.7738 31.1721 33.922 30.8724 33.922H30.7224C30.5727 33.922 30.273 33.7738 30.123 33.6258L29.3737 33.3296C27.7252 32.5889 26.2266 31.7 25.0276 30.515C24.7279 30.2188 24.2782 29.9225 23.9785 29.6263C22.9294 28.5894 21.8803 27.4042 21.1312 26.0711L20.9812 25.7748C20.8315 25.6266 20.8315 25.4786 20.6815 25.1824C20.6815 24.8861 20.6815 24.5899 20.8315 24.4417C20.8315 24.4417 21.4309 23.701 21.8803 23.2567C22.1803 22.9603 22.33 22.516 22.6297 22.2198C22.9294 21.7753 23.0794 21.1829 22.9294 20.7384C22.7797 19.9977 20.9812 15.9982 20.5318 15.1095C20.2318 14.665 19.9323 14.517 19.4827 14.3688H17.8342C17.5343 14.3688 17.2348 14.517 16.9348 14.517L16.7849 14.665C16.4852 14.8133 16.1855 15.1095 15.8858 15.2575C15.5861 15.554 15.4361 15.85 15.1364 16.1464C14.0873 17.4796 13.4879 19.109 13.4879 20.7384C13.4879 21.9233 13.7876 23.1085 14.2373 24.1454L14.3872 24.5899C15.736 27.4042 17.5343 29.9225 19.9323 32.1444L20.5318 32.7369C20.9812 33.1813 21.4309 33.4776 21.7306 33.9218C24.8778 36.5884 28.4745 38.514 32.5209 39.5509C32.9706 39.699 33.57 39.699 34.0196 39.8472H35.5182C36.2676 39.8472 37.1667 39.5509 37.7663 39.2547C38.2158 38.9585 38.5155 38.9585 38.8152 38.6622L39.1151 38.3658C39.4148 38.0696 39.7145 37.9215 40.0142 37.6253C40.3139 37.3291 40.6136 37.0328 40.7636 36.7364C41.0633 36.1439 41.213 35.4032 41.363 34.6627V33.6258C41.363 33.6258 41.213 33.4776 40.9133 33.3296Z" fill="white"/>
</g>
<defs>
<clipPath id="clip0_19_198">
<rect width="55" height="55" fill="white"/>
</clipPath>
</defs>
</svg>
