<svg width="64" height="64" viewBox="0 0 64 64" fill="none" xmlns="http://www.w3.org/2000/svg">
<g clip-path="url(#clip0_8_223)">
<path d="M51.9319 16.88C56.2399 23.984 55.3419 34.806 50.1519 41.2C44.4059 48.788 34.9319 52.08 25.5519 49.496C17.0439 47.266 10.1039 39.146 9.32588 30.366C8.26588 21.056 12.5939 12.57 20.4659 7.91998C26.5319 4.18998 35.8899 3.76598 42.2019 7.30598C46.0379 9.16998 49.8959 12.994 51.9139 16.876L51.9319 16.88ZM32.4379 5.92798C32.5179 6.77798 32.5179 7.96798 32.4379 8.93798C32.4619 8.78398 32.6039 8.78398 32.6979 8.72598C32.9939 8.83198 32.9939 9.19798 32.9099 9.44598H32.8499C34.3699 9.33998 35.8359 9.71798 37.2399 10.142C38.7039 10.33 39.9799 12.09 41.4199 11.156C41.8199 11.604 42.5199 11.18 42.7299 11.876C43.2839 11.982 43.5799 12.536 43.9579 12.89C43.9099 13.398 44.3819 13.634 44.5479 14.01V13.95C45.0319 13.076 45.7979 12.322 46.6479 11.874C43.6643 9.02574 39.9094 7.11731 35.8499 6.38598C34.7499 6.16198 33.5259 6.23198 32.4399 5.92598L32.4379 5.92798ZM17.0599 11.934L19.5599 14.33C22.6646 11.278 26.8081 9.51201 31.1599 9.38598C30.9939 8.32598 31.0539 7.11998 31.1119 6.03398C25.7319 6.33998 21.0459 8.36998 17.0579 11.934H17.0599ZM48.3679 6.73998L49.9959 8.36798C51.6479 10.916 53.9619 13.442 56.2499 15.048C55.7659 14.034 55.6599 12.842 55.1499 11.828C54.1359 8.98398 50.9699 7.60398 48.3639 6.74198L48.3679 6.73998ZM15.1279 7.05998C13.1079 7.85998 10.9279 8.52398 9.42788 10.412C8.25988 11.932 7.90788 13.764 7.30388 15.498L9.08388 13.978C11.7979 12.09 12.5039 9.00998 15.1239 7.06198L15.1279 7.05998ZM35.0479 7.75598L33.5279 8.43998C33.3619 8.51998 32.8319 8.25198 32.9139 8.69998C33.2099 8.88798 33.5039 9.09998 33.8699 9.14798C34.8259 8.72398 35.9699 9.41998 36.7699 8.53398C36.5339 7.88398 35.6839 7.86198 35.0499 7.75398L35.0479 7.75598ZM54.5419 9.70398C56.7959 11.19 56.6419 13.928 57.4419 16.148C57.6539 17.08 58.2219 17.928 58.2919 18.862C57.0879 15.358 53.0059 14.982 51.5319 11.676L51.9919 13.612C53.1359 17.364 57.6119 18.272 59.3079 21.672C58.7759 19.218 59.7079 16.644 58.9679 14.226C58.3539 12.15 56.6439 10.32 54.5419 9.70598V9.70398ZM5.30588 13.054C3.58588 15.58 4.98588 19.074 4.50588 22.07C5.11988 20.842 6.31188 19.674 7.34988 18.802C9.74588 17.256 11.8939 14.79 11.9759 12.042C10.6999 15.308 6.49988 15.734 5.45988 19.214H5.35388C6.89988 16.322 6.02588 12.254 8.97388 10.114C7.42788 10.55 6.11788 11.694 5.30388 13.054H5.30588ZM32.3859 10.554C32.5519 11.614 32.4919 12.89 32.4339 13.93C35.1239 13.978 37.6739 14.804 39.7739 16.37C39.649 16.2768 39.5477 16.1558 39.4779 16.0166C39.4081 15.8773 39.3718 15.7237 39.3719 15.568H39.4519C39.4999 15.188 38.9199 15.014 39.1119 14.636C39.6199 14.684 39.9979 15.38 40.2799 15.756C41.7439 15.732 40.8939 17.476 41.9999 17.996C42.2599 18.126 41.9199 18.656 42.3199 18.61C42.6599 18.882 43.0879 19.19 43.0159 19.624C43.1459 20.392 43.7599 19.388 44.1019 19.884C44.3979 20.12 43.8899 20.264 43.9479 20.544C44.1359 20.624 44.3139 20.356 44.4559 20.592C44.5159 20.852 44.3259 20.958 44.1959 21.1C44.0659 21.548 44.5959 21.288 44.7499 21.5C44.9859 22.008 45.1739 22.774 44.7979 23.34C45.3299 23.92 44.7179 24.508 44.6099 25.06C44.2299 25.426 44.1619 26.264 43.4419 26.074C43.2759 26.37 43.5479 26.714 43.3819 26.948L44.6559 27.008C43.9359 25.994 44.8679 25.014 45.1639 24.108C45.3179 24.048 45.5039 23.728 45.6359 24.048L45.4819 25.276C45.8019 25.76 45.6699 26.444 45.7779 27.01L49.0459 26.95C48.8099 24.79 48.3619 22.714 47.4519 20.838C47.2159 20.918 46.9439 21.098 46.6839 20.944C46.3179 20.46 46.0239 19.858 45.5159 19.458C45.0919 19.458 44.7959 19.118 44.4559 18.904C43.7119 18.928 43.9839 17.844 43.2639 17.996C42.8839 17.808 42.6039 17.616 42.4959 17.17C42.4719 16.662 42.4359 16.026 41.9419 15.65C41.6699 15.496 41.4099 15.698 41.2219 15.862C40.8219 16.122 40.6559 15.674 40.6679 15.354C40.2199 15.014 40.6919 14.634 40.4559 14.234C39.8159 13.726 40.1159 12.77 39.2519 12.346C37.8479 11.674 36.3719 11.246 34.8119 10.93C34.0219 10.79 33.1479 10.764 32.3819 10.55L32.3859 10.554ZM42.1099 10.554C41.9439 10.602 42.0039 10.874 42.0619 10.978C42.6159 11.026 42.6159 11.978 43.2659 11.568L43.1119 10.908C42.9459 10.494 42.3799 10.708 42.1079 10.554H42.1099ZM20.2799 15.2C21.1299 15.79 21.9559 16.72 22.6519 17.49C24.8919 15.306 27.9159 13.974 31.1599 13.926C31.0999 12.866 31.0999 11.72 31.1599 10.658C27.0539 10.978 23.3599 12.464 20.2799 15.202V15.2ZM47.4599 12.652L45.2299 15.048L44.8639 15.096C45.1599 15.096 45.0759 15.436 45.2639 15.568C46.1959 16.228 46.6239 17.162 47.4119 17.858C47.7079 18.578 48.4719 19.05 48.4719 19.934C49.5719 22.082 50.0879 24.594 50.2059 27.062C51.3383 26.9411 52.4771 26.8897 53.6159 26.908L53.5099 26.802C53.3099 21.292 51.0559 16.602 47.4559 12.652H47.4599ZM16.3999 13L16.2939 12.68C12.6739 16.62 10.6299 21.6 10.3579 27.04L13.8179 27.088C13.6879 25.988 13.9839 24.928 14.1139 23.842C14.8579 20.642 16.2379 17.612 18.6939 15.228L16.3999 13ZM59.4139 13.8C60.9839 16.09 60.0859 19.31 59.9939 21.99C60.0539 23.29 60.2659 24.574 60.1819 25.87C59.9939 25.362 59.9459 24.81 59.8159 24.276C59.1759 21.376 55.7679 19.946 54.3879 17.516C54.5999 18.342 54.7539 19.168 55.0479 19.956C56.2399 23.39 59.8039 25.702 60.2879 29.432C60.6079 25.868 63.0879 23.024 62.1759 19.142C61.6799 17.194 60.8759 15.282 59.4159 13.796L59.4139 13.8ZM4.07988 14.294C2.85188 15.76 2.02588 17.516 1.59988 19.4C0.773883 23.306 3.11988 26.316 3.63988 29.88C4.32388 25.408 9.03188 22.588 9.27988 17.914C7.87988 20.44 4.54788 21.902 3.93388 24.888C3.93388 25.372 3.77988 25.844 3.67388 26.304L3.56788 26.198L3.73388 24.262C4.31388 20.816 2.29388 17.252 4.07388 14.314L4.07988 14.294ZM31.2339 15.05L31.1279 15.13C28.2019 15.296 25.7579 16.594 23.4919 18.35C24.3659 18.916 25.0619 19.814 25.8879 20.58C27.3039 19.22 29.1919 18.42 31.1739 18.35C31.1039 17.382 31.0539 16.084 31.2339 15.046V15.05ZM32.4379 15.098C32.6039 16.09 32.5679 17.258 32.4979 18.298C34.4679 18.452 36.5699 19.254 37.9859 20.538C38.7299 19.77 39.5559 18.758 40.3819 18.298C38.0579 16.458 35.4499 15.312 32.4419 15.098H32.4379ZM19.4219 15.898V16.11C16.7319 19.19 15.2219 22.896 14.9499 27.05C16.0499 27.074 17.2619 27.002 18.3019 27.098L18.1959 26.944C18.4079 23.652 19.5959 20.664 21.8159 18.294C20.9199 17.574 20.0959 16.748 19.4199 15.898H19.4219ZM41.0879 19.058C40.0879 20.202 38.8339 21.418 37.8879 22.518C37.9479 22.672 38.1239 22.838 38.1479 22.778C38.4079 22.458 38.2079 21.658 38.9159 21.822C39.6119 22.058 40.2259 21.988 40.9919 22.082C41.4159 22.318 41.4759 22.826 41.8659 23.038C42.0319 23.226 41.8059 23.404 41.7119 23.546C41.7957 23.6211 41.8672 23.7088 41.9239 23.806C42.1359 23.618 42.4319 23.358 42.8319 23.466C43.2319 23.49 43.3399 24.056 43.7059 24.126C43.8719 24.338 43.5999 24.55 43.4459 24.634C43.5259 25.034 43.0659 25.166 43.2339 25.542C43.4459 25.59 43.6579 25.482 43.7419 25.33C44.5419 24.74 43.9079 23.97 43.7899 23.254C43.4699 22.594 42.7979 22.474 42.2699 21.98C42.2939 21.768 42.4239 21.532 42.5899 21.426C42.5539 20.482 41.5979 19.846 41.0899 19.066L41.0879 19.058ZM22.6559 19.164C21.9359 20.05 21.2399 21.028 20.7199 22.064C19.8939 23.584 19.6599 25.356 19.3199 27.092L20.7199 27.044C20.4839 26.772 20.5319 26.384 20.5319 26.03C20.8519 25.358 20.9799 24.142 21.9959 24.2C22.4799 24.094 21.9719 23.716 22.3619 23.516C23.0819 23.41 23.2699 22.736 23.8819 22.416C24.4619 22.356 24.5779 21.542 25.1559 21.484C24.1879 20.812 23.5279 19.964 22.6559 19.16V19.164ZM32.4959 19.564L32.5759 21.854L33.4499 22.174C33.7099 21.726 34.1699 21.62 34.4639 21.242C34.7359 21.112 34.7359 21.454 34.8639 21.562C35.0299 22.602 33.8639 23.072 33.2479 23.498H33.5079C34.1679 22.814 34.5479 24.348 35.2279 23.652C35.3579 22.778 36.5879 22.884 36.8559 22.024C36.6439 22.236 36.5359 22 36.3479 21.944C36.4079 21.648 36.8199 21.46 37.0079 21.26C35.6079 20.4 34.1279 19.832 32.4879 19.572L32.4959 19.564ZM31.1279 19.634C29.3479 19.894 27.6679 20.542 26.3959 21.924C26.8199 22.004 27.2459 22.184 27.5639 22.478C27.6699 22.69 27.3759 22.714 27.3519 22.844C27.6239 23.244 27.6479 22.764 27.9319 22.69C28.1919 22.95 28.4159 23.138 28.7819 22.95C28.9699 23.27 29.2659 22.974 29.5019 22.998C29.5819 22.738 29.9499 22.526 29.7979 22.23C29.9279 21.994 29.9859 21.616 30.3059 21.616C30.1179 22.608 31.0499 21.616 31.3199 22.088C31.0359 21.344 31.2499 20.354 31.1319 19.634H31.1279ZM62.9779 22.064C63.5679 25.498 61.4919 28.084 60.6419 31.08C60.1699 32.224 60.3699 33.688 59.6419 34.692C59.5939 34.112 59.9139 33.572 59.9619 32.958C60.4939 29.122 57.1659 26.846 56.3979 23.598C56.3579 24.4271 56.4095 25.2582 56.5519 26.076C56.7399 30.124 59.3959 33.416 58.6279 37.64C59.3959 36.648 59.9619 35.62 60.8819 34.654C63.9379 31.454 64.7179 26.134 62.9579 22.062L62.9779 22.064ZM0.837883 22.512C-0.262117 25.06 -0.202117 28.424 0.625883 31.08C1.34588 33.82 3.95388 35.73 5.30988 38.1C5.07388 37.108 5.12188 35.846 5.26188 34.832C6.14788 31.292 7.55188 27.872 7.33788 23.952C6.80588 26.752 4.28188 28.766 3.98588 31.672C3.79788 32.864 4.09188 34.032 4.24588 35.082C3.97388 34.55 3.71388 33.938 3.66588 33.252C3.25188 29.452 0.171883 26.644 0.833883 22.512H0.837883ZM31.0579 23.846L31.1179 23.894C31.1779 24.214 31.4139 24.694 31.1179 24.908C30.7379 25.416 29.8179 25.308 29.7019 25.994C28.7099 26.29 29.0879 27.514 28.7699 28.284C28.1299 28.438 28.3699 27.67 28.0739 27.41L27.9199 27.598C26.9199 26.854 27.1299 28.448 26.5199 28.598C27.1919 28.752 27.7699 28.362 28.4559 28.338C28.5039 28.418 28.6679 28.468 28.6099 28.598H28.7159C28.8699 28.444 28.8819 28.258 28.8699 28.044C28.9299 27.832 29.1899 27.704 29.3779 27.832C29.3179 28.044 29.4579 28.212 29.6379 28.304L29.2719 28.812C29.0839 29.024 29.3199 29.602 28.8239 29.58C28.7179 29.604 28.6359 29.52 28.6699 29.414H28.5639L28.8239 29.886C29.1199 29.862 29.0599 29.332 29.4379 29.272C29.7779 29.192 29.8179 28.788 29.7779 28.472C30.2259 28.092 30.7699 28.318 31.2639 28.26C31.3939 28.39 31.6879 28.426 31.6299 28.66C31.8179 29.04 31.4999 29.46 31.2639 29.78C31.3699 29.992 31.1099 30.16 31.1099 30.394C30.7099 30.818 30.2599 30.63 29.7099 30.76C30.3819 31.232 31.1139 31.528 31.9999 31.456C32.8499 31.516 32.4479 30.442 33.0599 30.096C33.4259 30.048 33.7319 30.144 34.1459 30.036C34.3119 29.716 34.3339 29.34 34.4059 28.976C34.0399 28.81 34.1699 28.444 34.1459 28.15C33.9339 27.89 33.9579 27.43 33.5319 27.382C33.4519 27.146 33.6979 27.042 33.6859 26.828C34.3259 26.592 33.3459 26.214 33.7459 25.828C33.0259 25.698 32.8599 24.554 31.9659 24.92C31.7539 24.624 31.1979 24.496 31.1979 24.046C31.2579 23.726 31.9779 23.858 31.8939 23.892C31.8459 23.832 31.7639 23.786 31.7879 23.704C31.5159 23.68 31.1979 23.704 31.0199 23.844L31.0579 23.846ZM22.0059 26.586C21.2259 26.846 22.0059 27.578 21.9579 28.072C21.8779 28.472 21.4739 28.152 21.2379 28.332C21.3439 28.992 20.7899 29.122 20.3299 29.24C20.1759 29.688 20.6699 29.9 20.4359 30.326C21.0019 30.906 21.4499 31.6 21.3439 32.402C21.7439 32.982 21.6399 33.842 21.7439 34.586C21.9189 34.7687 22.0543 34.9856 22.1417 35.223C22.2291 35.4605 22.2666 35.7134 22.2519 35.966C22.2759 36.238 21.9799 36.332 21.8039 36.438C21.5919 36.698 21.9579 36.568 21.9579 36.778L24.8019 33.828C23.7521 32.6121 23.0367 31.144 22.7259 29.568L22.3599 29.356C22.2999 29.756 22.3119 30.356 21.9599 30.476C21.7719 30.31 21.3939 30.216 21.3939 29.862C21.4999 29.626 21.6899 29.782 21.8659 29.756C21.8419 29.568 21.8899 29.376 21.9139 29.202C21.9739 28.966 21.5739 28.802 21.8659 28.588C22.1259 28.564 22.2319 28.86 22.4199 28.988L22.9279 28.728C22.7739 28.244 23.0579 27.478 22.8799 26.948C22.8099 26.524 22.3479 26.608 22.0059 26.582V26.586ZM42.8699 27.01H43.1299H42.8699ZM42.5159 28.07L43.0819 28.73C43.0579 29.474 44.0739 29.73 44.1419 30.464C44.3539 29.768 44.3299 28.978 44.5419 28.28C43.8919 28.21 43.0559 28.42 42.5119 28.068L42.5159 28.07ZM50.1039 28.106L50.2099 28.318C50.0199 32.6466 48.2818 36.7631 45.3119 39.918C46.1648 40.6961 46.9836 41.5109 47.7659 42.36C50.5659 39.114 52.5219 35.468 53.1939 31.326C53.4299 30.266 53.3599 29.12 53.6659 28.106C52.6259 28.402 51.3999 28.212 50.2559 28.272L50.1039 28.106ZM45.7379 28.176C45.8679 28.6 45.6079 29.002 45.6319 29.45C45.1839 30.194 46.2119 30.382 45.9279 31.078C45.7399 31.232 45.5479 31.208 45.3139 31.126C44.7819 33.202 43.7439 35.114 42.2579 36.766H42.1039C42.4839 37.002 42.7639 37.534 43.1899 37.64V37.344C43.2699 37.284 43.3199 37.132 43.4499 37.19C44.2759 37.45 44.3359 38.594 44.4059 39.126C46.5659 36.86 47.9099 34.158 48.5859 31.232C48.8219 30.232 48.6919 29.072 49.0939 28.222C47.9839 28.282 46.7819 28.342 45.7419 28.174L45.7379 28.176ZM19.3179 28.212C19.5539 28.98 19.8019 29.806 19.6139 30.652C19.6139 30.272 20.4399 29.884 19.7799 29.552C20.0399 29.172 19.8399 28.36 20.3339 28.324C19.9439 28.404 19.6499 28.404 19.3199 28.204L19.3179 28.212ZM10.4079 28.318C10.6439 33.722 12.6379 38.454 16.1539 42.468C16.9339 41.642 17.8059 40.708 18.6539 40.028C18.2299 39.756 17.9579 39.26 17.5339 38.908C17.0019 38.802 16.6479 38.294 16.5199 37.848C16.5439 37.908 16.4599 37.954 16.4139 38.002C15.9299 38.238 15.7739 37.636 15.4579 37.448C15.1619 37.294 15.3979 36.622 14.8779 36.868C14.5819 36.384 14.0279 36.42 13.8179 35.854L13.5999 36.2C13.2199 36.176 12.9399 35.716 12.7259 35.48C11.9459 35.716 12.2539 34.63 11.8179 34.276C11.6519 33.592 11.8659 32.966 12.2179 32.436C12.4539 32.224 12.9019 32.388 12.9859 32.542C13.3859 32.696 13.1399 32.222 13.3519 32.142C13.9179 31.658 14.2019 32.33 14.5199 32.696C14.0479 31.336 13.7519 29.746 13.8239 28.282C12.7239 28.412 11.4999 28.376 10.4039 28.306L10.4079 28.318ZM14.8799 28.282L14.9859 28.436C15.0919 29.956 15.5179 31.446 15.6459 32.908C15.8339 32.778 15.7059 32.436 15.9659 32.436C16.0459 31.716 16.1539 30.89 16.6259 30.252C17.2979 30.228 17.3219 29.32 18.0419 29.378C18.2079 29.508 18.4419 29.674 18.5139 29.886C18.1479 29.462 18.1339 28.786 18.3019 28.27C17.1665 28.4213 16.0163 28.4254 14.8799 28.282ZM24.1079 29.642L24.2959 29.962C24.5559 31.022 25.1819 31.91 25.7119 32.862L26.7119 31.848C26.6879 31.718 26.7599 31.576 26.6639 31.482C26.4759 31.222 26.6039 30.762 26.3439 30.608C26.2639 30.844 26.5319 30.974 26.4039 31.162C26.0839 31.032 25.7439 30.89 25.5779 30.502C25.6379 30.018 25.2819 30.372 25.0239 30.136C25.0119 29.616 24.3519 29.956 24.1279 29.64L24.1079 29.642ZM27.6719 30.516C27.6119 30.812 27.3759 31.048 27.1999 31.284C27.4959 31.154 27.6719 30.704 27.9999 30.73L27.6719 30.516ZM56.9379 30.916C54.9179 35.256 56.3839 41.03 53.9279 45.172L54.3279 44.832C59.0959 42.224 64.8419 37.832 63.8979 31.426C63.8179 32.3 63.5319 33.078 63.1299 33.822C61.2659 36.722 58.0799 39.096 56.5299 42.118C56.4819 42.224 56.3419 42.284 56.2699 42.178L56.5899 41.778C58.8439 38.532 56.8259 34.544 56.9559 30.922L56.9379 30.916ZM36.7239 31.27C36.2519 31.93 37.1719 31.884 37.2319 32.438C37.3379 32.438 37.4679 32.486 37.5279 32.39C37.4679 32.154 37.4799 31.906 37.2679 31.73C36.9139 31.742 36.9139 31.27 36.7279 31.27H36.7239ZM6.98388 31.34C7.24388 32.744 6.79588 33.972 6.58388 35.246C5.86388 37.686 6.21788 40.546 7.64388 42.538C7.17188 42.302 6.87588 41.758 6.58388 41.264C4.82388 37.888 0.387883 35.978 0.00988288 31.93C-0.0141171 33.394 -0.0141172 34.94 0.433883 36.26C1.66188 40.792 6.66388 43.128 10.0399 45.42C7.64388 41.29 8.91988 35.66 6.98388 31.34ZM42.3639 31.528C41.7499 31.068 41.8799 31.952 41.3499 31.894C41.1619 31.846 41.1139 31.622 41.0899 31.422C41.0419 31.906 40.6659 32.272 40.3939 32.65C39.3939 32.378 39.6739 33.75 38.6939 33.45C38.8239 33.83 39.2479 33.39 39.4619 33.51C39.6279 33.43 39.5919 33.25 39.6739 33.144C39.7799 32.744 40.2639 32.59 40.6739 32.744C40.8859 33.084 40.9459 33.512 40.9339 33.912C40.6979 34.078 40.6979 34.36 40.7219 34.632C40.4259 35.116 40.5559 36.152 39.6619 36.048C38.7299 35.708 37.7139 35.458 36.6879 35.434V35.646C37.3719 35.906 38.1279 35.906 38.6819 36.414C39.2719 36.354 40.0159 36.494 40.4619 36.154C40.5219 35.73 40.6979 35.354 40.9699 35.034C41.3499 35.082 41.2659 35.588 41.4419 35.834C42.5619 34.418 43.5419 33.06 43.9219 31.314C43.3679 31.29 42.9659 31.61 42.3879 31.526L42.3639 31.528ZM28.7339 31.48L26.6939 33.77C27.8619 34.656 29.2199 35.364 30.7299 35.6C30.7059 35.2 30.7059 34.8 30.9179 34.48C31.1299 34.35 31.4499 34.54 31.6379 34.326C31.6139 34.138 31.4839 34.138 31.3779 33.96C31.2479 33.664 31.3779 33.394 31.4259 33.192C31.5059 33.038 31.2599 32.708 31.5319 32.602C30.8719 32.922 30.2819 32.472 29.7019 32.282C29.3819 32.034 28.8159 31.976 28.7339 31.482V31.48ZM35.3079 33.77C35.5679 33.43 36.1079 33.498 36.2159 33.11C35.7439 33.03 35.2159 33.37 35.3079 33.77ZM36.5119 34.278C36.2759 34.408 36.0879 34.408 35.9579 34.678C35.6859 35.044 35.3439 34.654 35.0839 34.524C35.1639 34.63 35.3559 34.89 35.1319 35.032C34.8599 35.328 34.5999 34.902 34.3319 34.82C34.1779 35.752 33.8479 34.56 33.3319 34.772C33.1199 34.24 32.7519 34.878 32.4239 34.82C32.1639 35.032 32.1519 35.646 31.6559 35.588C31.5499 35.884 31.1479 35.776 31.1019 35.988C31.3379 36.26 31.6559 36.142 31.9019 36.094C32.3019 35.728 32.8099 35.964 33.3019 35.906C33.2539 36.674 34.1519 36.094 34.4219 36.566C34.7419 36.542 34.7419 36.226 34.8699 35.986C35.5299 35.88 36.2039 35.478 36.5699 34.972C36.6639 34.792 36.7819 34.382 36.5099 34.276L36.5119 34.278ZM25.6779 34.644C25.0059 35.47 24.1919 36.26 23.3879 36.934H23.5419C25.4059 38.55 27.7659 39.674 29.9739 40.026C29.1739 39.92 28.8539 39.13 28.4879 38.54C28.2759 38.056 29.0199 37.95 28.8879 37.44C29.1599 36.992 29.5839 36.744 30.1159 36.672C29.8559 36.72 29.6079 36.752 29.3479 36.826C28.0019 36.378 26.6479 35.786 25.6779 34.642V34.644ZM54.8979 37.334L53.1179 39.67C50.7219 42.974 50.9939 47.494 47.6659 50.314C49.3859 49.76 51.2779 49.524 53.0459 49.146C57.0579 48.132 61.2719 44.178 61.8499 40.072C61.1299 41.792 59.6199 43.058 58.0979 44.06C55.4659 45.288 52.7979 46.692 50.5699 48.64H50.3099L50.4639 48.428C54.3119 45.888 53.2719 40.968 54.9039 37.336L54.8979 37.334ZM41.3039 37.594V37.642C39.7099 38.762 42.0719 38.81 42.1039 39.79C41.8679 40.262 41.0179 40.722 41.5499 41.276C41.7159 41.464 41.4699 41.616 41.3959 41.784L43.5799 39.944C43.3079 40.132 42.9659 40.004 42.8119 39.756C42.8599 38.756 41.7019 38.364 41.3019 37.596L41.3039 37.594ZM9.02788 37.7L9.64188 39.27C10.2319 42.786 10.5159 46.67 13.7139 48.9L13.6659 48.948C12.6259 48.5 11.8359 47.638 10.9059 47.06C7.89588 45.112 3.74188 44.26 2.04588 40.51C2.51788 43.25 4.38188 45.71 6.62588 47.378C9.31588 49.75 13.0699 49.562 16.3619 50.518C15.1579 49.586 14.4739 48.524 13.9219 47.214C12.7299 43.874 11.6679 40.414 9.03588 37.702L9.02788 37.7ZM23.2839 38.396L23.5439 38.716L23.2839 38.396ZM23.6379 38.796C23.6379 39.162 24.1219 39.176 23.9339 39.622C23.2139 40.07 22.3399 39.752 21.6439 40.282C21.0039 40.622 20.4759 39.882 20.1239 39.916C23.2159 42.582 26.8499 44.364 31.0279 44.566L31.2879 44.72C31.1219 43.706 31.1819 42.514 31.2399 41.452C28.3959 41.618 25.8239 40.438 23.6399 38.796H23.6379ZM44.4659 40.684C43.9847 41.3385 43.3791 41.8917 42.6839 42.312C40.4779 43.08 40.2839 45.532 38.1039 46.348C37.2539 46.688 36.7699 45.58 36.0039 45.416C34.8599 45.604 33.6679 45.924 32.4999 45.736V49.3L32.6539 49.194C38.1299 48.958 43.0619 46.798 46.9099 43.188C46.0359 42.362 45.1039 41.512 44.4699 40.688L44.4659 40.684ZM19.4259 40.896L17.0659 43.336C21.0899 46.948 25.9059 48.896 31.3219 49.236L31.1679 48.976C31.2159 47.916 31.0879 46.792 31.2739 45.776L31.2259 45.836C26.7179 45.706 22.5999 44.03 19.4259 40.892V40.896ZM32.3359 41.664L32.5479 42.03L32.4999 44.72C33.2799 44.424 34.3639 44.448 35.0839 44.32C34.6599 43.896 34.0239 43.94 33.8559 43.306C33.5599 42.882 33.9859 42.432 33.9619 42.078C33.4539 41.83 32.7019 42.126 32.3339 41.664H32.3359ZM50.3599 44.2C47.9199 45.794 45.8159 48.508 43.5999 50.24C42.3719 51.172 40.9099 51.444 39.4699 51.868C42.6559 52.104 45.2999 53.602 48.6299 53.388C52.1939 53.234 55.4619 51.158 57.1379 47.996C54.6839 50.922 50.7299 50.756 47.1079 51.088C45.9039 51.242 44.7119 51.596 43.4959 51.596C43.5439 51.548 43.5759 51.466 43.6499 51.49C47.6039 51.17 48.7239 46.864 50.3639 44.198L50.3599 44.2ZM13.5539 44.448C15.1819 46.36 15.2539 48.888 17.5199 50.454C18.3939 51.222 19.5599 51.362 20.5299 51.764C19.4439 51.87 18.4539 51.424 17.3699 51.364C13.7239 50.916 9.54588 51.388 6.86988 48.414C8.07388 50.538 10.2219 52.38 12.4639 53.098C16.6999 54.714 20.5479 52.33 24.5959 51.978C19.9119 51.766 17.3619 46.632 13.5619 44.45L13.5539 44.448ZM44.1059 54.372C40.4859 52.72 36.2819 50.868 32.0339 52.436C29.8979 51.74 27.0899 51.74 24.9539 52.436C21.2239 54.136 16.1279 56.696 12.1859 53.852C12.9299 54.738 13.7319 55.162 14.5819 55.788C17.1299 57.44 20.8019 57.274 23.4219 55.942C25.8219 54.928 27.6819 51.894 30.7619 52.85C28.1539 54.16 25.7579 55.73 23.5979 57.984L24.9079 59.104C26.7999 56.6 29.3999 54.5 32.1399 53.272C34.8059 54.572 37.2499 56.788 39.2679 59.018L40.5779 57.898C38.4539 55.844 35.9979 54.178 33.4499 52.87C34.1099 52.704 34.9139 52.74 35.5859 52.81C38.3459 54.014 40.4599 56.43 43.5859 56.798C46.8899 57.33 49.8399 55.998 51.8819 53.578L50.3119 54.404C48.4719 55.218 45.9819 55.004 44.1039 54.392L44.1059 54.372Z" fill="#008FD5"/>
<path d="M27.7737 63C27.8203 62.9833 27.867 62.94 27.9137 62.87C27.9637 62.8 27.9887 62.6683 27.9887 62.475V59.905L27.5437 59.925V59.855L28.3087 59.5V62.475C28.3087 62.6683 28.3337 62.8 28.3837 62.87C28.4337 62.94 28.482 62.9833 28.5287 63H27.7737ZM29.5263 60.39C29.5263 60.5133 29.5496 60.6317 29.5963 60.745C29.6429 60.855 29.7113 60.945 29.8013 61.015C29.8913 61.085 29.9979 61.12 30.1213 61.12C30.3079 61.12 30.4763 61.0433 30.6263 60.89C30.6263 60.9433 30.5996 61.0067 30.5463 61.08C30.4963 61.1533 30.4213 61.2183 30.3213 61.275C30.2246 61.3283 30.1096 61.355 29.9763 61.355C29.8029 61.355 29.6546 61.3167 29.5313 61.24C29.4113 61.16 29.3196 61.0567 29.2563 60.93C29.1963 60.8 29.1663 60.66 29.1663 60.51C29.1663 60.34 29.2046 60.1783 29.2813 60.025C29.3613 59.8683 29.4763 59.7417 29.6263 59.645C29.7763 59.5483 29.9546 59.5 30.1613 59.5C30.3813 59.5 30.5696 59.5633 30.7263 59.69C30.8829 59.8167 31.0013 59.9833 31.0813 60.19C31.1646 60.3967 31.2063 60.6183 31.2063 60.855C31.2063 61.1417 31.1346 61.4367 30.9913 61.74C30.8479 62.04 30.6513 62.3083 30.4013 62.545C30.1513 62.7817 29.8713 62.95 29.5613 63.05L29.3663 62.96C29.6796 62.8333 29.9479 62.65 30.1713 62.41C30.3946 62.1667 30.5629 61.9017 30.6763 61.615C30.7929 61.3283 30.8513 61.05 30.8513 60.78C30.8513 60.5567 30.8196 60.3633 30.7563 60.2C30.6929 60.0333 30.6063 59.9067 30.4963 59.82C30.3896 59.73 30.2729 59.685 30.1463 59.685C29.9429 59.685 29.7879 59.7517 29.6813 59.885C29.5779 60.0183 29.5263 60.1867 29.5263 60.39ZM33.7986 61.82V62.06H33.3786V62.535C33.3786 62.7783 33.4286 62.9333 33.5286 63H32.9136C32.9402 62.9933 32.9702 62.9567 33.0036 62.89C33.0402 62.82 33.0586 62.7 33.0586 62.53V62.06H31.5486L33.3786 59.45V61.82H33.7986ZM33.0586 60.245L31.9586 61.82H33.0586V60.245ZM34.619 60.39C34.619 60.5133 34.6424 60.6317 34.689 60.745C34.7357 60.855 34.804 60.945 34.894 61.015C34.984 61.085 35.0907 61.12 35.214 61.12C35.4007 61.12 35.569 61.0433 35.719 60.89C35.719 60.9433 35.6924 61.0067 35.639 61.08C35.589 61.1533 35.514 61.2183 35.414 61.275C35.3174 61.3283 35.2024 61.355 35.069 61.355C34.8957 61.355 34.7474 61.3167 34.624 61.24C34.504 61.16 34.4124 61.0567 34.349 60.93C34.289 60.8 34.259 60.66 34.259 60.51C34.259 60.34 34.2974 60.1783 34.374 60.025C34.454 59.8683 34.569 59.7417 34.719 59.645C34.869 59.5483 35.0474 59.5 35.254 59.5C35.474 59.5 35.6624 59.5633 35.819 59.69C35.9757 59.8167 36.094 59.9833 36.174 60.19C36.2574 60.3967 36.299 60.6183 36.299 60.855C36.299 61.1417 36.2274 61.4367 36.084 61.74C35.9407 62.04 35.744 62.3083 35.494 62.545C35.244 62.7817 34.964 62.95 34.654 63.05L34.459 62.96C34.7724 62.8333 35.0407 62.65 35.264 62.41C35.4874 62.1667 35.6557 61.9017 35.769 61.615C35.8857 61.3283 35.944 61.05 35.944 60.78C35.944 60.5567 35.9124 60.3633 35.849 60.2C35.7857 60.0333 35.699 59.9067 35.589 59.82C35.4824 59.73 35.3657 59.685 35.239 59.685C35.0357 59.685 34.8807 59.7517 34.774 59.885C34.6707 60.0183 34.619 60.1867 34.619 60.39Z" fill="#1B85D0"/>
</g>
<defs>
<clipPath id="clip0_8_223">
<rect width="64" height="64" fill="white"/>
</clipPath>
</defs>
</svg>
