<svg width="48" height="36" viewBox="0 0 48 36" fill="none" xmlns="http://www.w3.org/2000/svg">
<g clip-path="url(#clip0_19_191)">
<path d="M10.9091 35.8228V17.3733L5.15756 12.1387L0 9.23392V32.567C0 34.3684 1.46719 35.8228 3.27281 35.8228H10.9091Z" fill="#4285F4"/>
<path d="M37.0908 35.8228H44.7271C46.5382 35.8228 47.9999 34.363 47.9999 32.5669V9.23409L42.1582 12.5612L37.0908 17.3733V35.8228Z" fill="#34A853"/>
<path d="M10.9096 17.3733L10.127 10.1645L10.9096 3.265L24.0005 13.0324L37.0913 3.265L37.967 9.792L37.0913 17.3733L24.0005 27.1406L10.9096 17.3733Z" fill="#EA4335"/>
<path d="M37.0908 3.265V17.3733L47.9999 9.23391V4.89283C47.9999 0.866615 43.3799 -1.42862 40.1456 0.985993L37.0908 3.265Z" fill="#FBBC04"/>
<path d="M0 9.23378L5.01731 12.9774L10.9091 17.3731V3.26487L7.85437 0.985865C4.61437 -1.42893 0 0.866487 0 4.89252V9.2336V9.23378Z" fill="#C5221F"/>
</g>
<defs>
<clipPath id="clip0_19_191">
<rect width="48" height="36" fill="white"/>
</clipPath>
</defs>
</svg>
