<svg width="64" height="64" viewBox="0 0 64 64" fill="none" xmlns="http://www.w3.org/2000/svg">
<g clip-path="url(#clip0_9_162)">
<path d="M51.9321 16.88C56.2401 23.984 55.3421 34.806 50.1521 41.2C44.4061 48.788 34.9321 52.08 25.5521 49.496C17.0441 47.266 10.1041 39.146 9.32613 30.366C8.26613 21.056 12.5941 12.57 20.4661 7.91999C26.5321 4.18999 35.8901 3.76599 42.2021 7.30599C46.0381 9.16999 49.8961 12.994 51.9141 16.876L51.9321 16.88ZM32.4381 5.92799C32.5181 6.77799 32.5181 7.96799 32.4381 8.93799C32.4621 8.78399 32.6041 8.78399 32.6981 8.72599C32.9941 8.83199 32.9941 9.19799 32.9101 9.44599H32.8501C34.3701 9.33999 35.8361 9.71799 37.2401 10.142C38.7041 10.33 39.9801 12.09 41.4201 11.156C41.8201 11.604 42.5201 11.18 42.7301 11.876C43.2841 11.982 43.5801 12.536 43.9581 12.89C43.9101 13.398 44.3821 13.634 44.5481 14.01V13.95C45.0321 13.076 45.7981 12.322 46.6481 11.874C43.6646 9.02575 39.9096 7.11732 35.8501 6.38599C34.7501 6.16199 33.5261 6.23199 32.4401 5.92599L32.4381 5.92799ZM17.0601 11.934L19.5601 14.33C22.6649 11.278 26.8083 9.51203 31.1601 9.38599C30.9941 8.32599 31.0541 7.11999 31.1121 6.03399C25.7321 6.33999 21.0461 8.36999 17.0581 11.934H17.0601ZM48.3681 6.73999L49.9961 8.36799C51.6481 10.916 53.9621 13.442 56.2501 15.048C55.7661 14.034 55.6601 12.842 55.1501 11.828C54.1361 8.98399 50.9701 7.60399 48.3641 6.74199L48.3681 6.73999ZM15.1281 7.05999C13.1081 7.85999 10.9281 8.52399 9.42813 10.412C8.26013 11.932 7.90813 13.764 7.30413 15.498L9.08413 13.978C11.7981 12.09 12.5041 9.00999 15.1241 7.06199L15.1281 7.05999ZM35.0481 7.75599L33.5281 8.43999C33.3621 8.51999 32.8321 8.25199 32.9141 8.69999C33.2101 8.88799 33.5041 9.09999 33.8701 9.14799C34.8261 8.72399 35.9701 9.41999 36.7701 8.53399C36.5341 7.88399 35.6841 7.86199 35.0501 7.75399L35.0481 7.75599ZM54.5421 9.70399C56.7961 11.19 56.6421 13.928 57.4421 16.148C57.6541 17.08 58.2221 17.928 58.2921 18.862C57.0881 15.358 53.0061 14.982 51.5321 11.676L51.9921 13.612C53.1361 17.364 57.6121 18.272 59.3081 21.672C58.7761 19.218 59.7081 16.644 58.9681 14.226C58.3541 12.15 56.6441 10.32 54.5421 9.70599V9.70399ZM5.30613 13.054C3.58613 15.58 4.98613 19.074 4.50613 22.07C5.12013 20.842 6.31213 19.674 7.35013 18.802C9.74613 17.256 11.8941 14.79 11.9761 12.042C10.7001 15.308 6.50013 15.734 5.46013 19.214H5.35413C6.90013 16.322 6.02613 12.254 8.97413 10.114C7.42813 10.55 6.11813 11.694 5.30413 13.054H5.30613ZM32.3861 10.554C32.5521 11.614 32.4921 12.89 32.4341 13.93C35.1241 13.978 37.6741 14.804 39.7741 16.37C39.6493 16.2769 39.5479 16.1558 39.4781 16.0166C39.4084 15.8774 39.372 15.7237 39.3721 15.568H39.4521C39.5001 15.188 38.9201 15.014 39.1121 14.636C39.6201 14.684 39.9981 15.38 40.2801 15.756C41.7441 15.732 40.8941 17.476 42.0001 17.996C42.2601 18.126 41.9201 18.656 42.3201 18.61C42.6601 18.882 43.0881 19.19 43.0161 19.624C43.1461 20.392 43.7601 19.388 44.1021 19.884C44.3981 20.12 43.8901 20.264 43.9481 20.544C44.1361 20.624 44.3141 20.356 44.4561 20.592C44.5161 20.852 44.3261 20.958 44.1961 21.1C44.0661 21.548 44.5961 21.288 44.7501 21.5C44.9861 22.008 45.1741 22.774 44.7981 23.34C45.3301 23.92 44.7181 24.508 44.6101 25.06C44.2301 25.426 44.1621 26.264 43.4421 26.074C43.2761 26.37 43.5481 26.714 43.3821 26.948L44.6561 27.008C43.9361 25.994 44.8681 25.014 45.1641 24.108C45.3181 24.048 45.5041 23.728 45.6361 24.048L45.4821 25.276C45.8021 25.76 45.6701 26.444 45.7781 27.01L49.0461 26.95C48.8101 24.79 48.3621 22.714 47.4521 20.838C47.2161 20.918 46.9441 21.098 46.6841 20.944C46.3181 20.46 46.0241 19.858 45.5161 19.458C45.0921 19.458 44.7961 19.118 44.4561 18.904C43.7121 18.928 43.9841 17.844 43.2641 17.996C42.8841 17.808 42.6041 17.616 42.4961 17.17C42.4721 16.662 42.4361 16.026 41.9421 15.65C41.6701 15.496 41.4101 15.698 41.2221 15.862C40.8221 16.122 40.6561 15.674 40.6681 15.354C40.2201 15.014 40.6921 14.634 40.4561 14.234C39.8161 13.726 40.1161 12.77 39.2521 12.346C37.8481 11.674 36.3721 11.246 34.8121 10.93C34.0221 10.79 33.1481 10.764 32.3821 10.55L32.3861 10.554ZM42.1101 10.554C41.9441 10.602 42.0041 10.874 42.0621 10.978C42.6161 11.026 42.6161 11.978 43.2661 11.568L43.1121 10.908C42.9461 10.494 42.3801 10.708 42.1081 10.554H42.1101ZM20.2801 15.2C21.1301 15.79 21.9561 16.72 22.6521 17.49C24.8921 15.306 27.9161 13.974 31.1601 13.926C31.1001 12.866 31.1001 11.72 31.1601 10.658C27.0541 10.978 23.3601 12.464 20.2801 15.202V15.2ZM47.4601 12.652L45.2301 15.048L44.8641 15.096C45.1601 15.096 45.0761 15.436 45.2641 15.568C46.1961 16.228 46.6241 17.162 47.4121 17.858C47.7081 18.578 48.4721 19.05 48.4721 19.934C49.5721 22.082 50.0881 24.594 50.2061 27.062C51.3386 26.9411 52.4774 26.8897 53.6161 26.908L53.5101 26.802C53.3101 21.292 51.0561 16.602 47.4561 12.652H47.4601ZM16.4001 13L16.2941 12.68C12.6741 16.62 10.6301 21.6 10.3581 27.04L13.8181 27.088C13.6881 25.988 13.9841 24.928 14.1141 23.842C14.8581 20.642 16.2381 17.612 18.6941 15.228L16.4001 13ZM59.4141 13.8C60.9841 16.09 60.0861 19.31 59.9941 21.99C60.0541 23.29 60.2661 24.574 60.1821 25.87C59.9941 25.362 59.9461 24.81 59.8161 24.276C59.1761 21.376 55.7681 19.946 54.3881 17.516C54.6001 18.342 54.7541 19.168 55.0481 19.956C56.2401 23.39 59.8041 25.702 60.2881 29.432C60.6081 25.868 63.0881 23.024 62.1761 19.142C61.6801 17.194 60.8761 15.282 59.4161 13.796L59.4141 13.8ZM4.08013 14.294C2.85213 15.76 2.02613 17.516 1.60013 19.4C0.774127 23.306 3.12013 26.316 3.64013 29.88C4.32413 25.408 9.03213 22.588 9.28013 17.914C7.88013 20.44 4.54813 21.902 3.93413 24.888C3.93413 25.372 3.78013 25.844 3.67413 26.304L3.56813 26.198L3.73413 24.262C4.31413 20.816 2.29413 17.252 4.07413 14.314L4.08013 14.294ZM31.2341 15.05L31.1281 15.13C28.2021 15.296 25.7581 16.594 23.4921 18.35C24.3661 18.916 25.0621 19.814 25.8881 20.58C27.3041 19.22 29.1921 18.42 31.1741 18.35C31.1041 17.382 31.0541 16.084 31.2341 15.046V15.05ZM32.4381 15.098C32.6041 16.09 32.5681 17.258 32.4981 18.298C34.4681 18.452 36.5701 19.254 37.9861 20.538C38.7301 19.77 39.5561 18.758 40.3821 18.298C38.0581 16.458 35.4501 15.312 32.4421 15.098H32.4381ZM19.4221 15.898V16.11C16.7321 19.19 15.2221 22.896 14.9501 27.05C16.0501 27.074 17.2621 27.002 18.3021 27.098L18.1961 26.944C18.4081 23.652 19.5961 20.664 21.8161 18.294C20.9201 17.574 20.0961 16.748 19.4201 15.898H19.4221ZM41.0881 19.058C40.0881 20.202 38.8341 21.418 37.8881 22.518C37.9481 22.672 38.1241 22.838 38.1481 22.778C38.4081 22.458 38.2081 21.658 38.9161 21.822C39.6121 22.058 40.2261 21.988 40.9921 22.082C41.4161 22.318 41.4761 22.826 41.8661 23.038C42.0321 23.226 41.8061 23.404 41.7121 23.546C41.7959 23.6211 41.8674 23.7088 41.9241 23.806C42.1361 23.618 42.4321 23.358 42.8321 23.466C43.2321 23.49 43.3401 24.056 43.7061 24.126C43.8721 24.338 43.6001 24.55 43.4461 24.634C43.5261 25.034 43.0661 25.166 43.2341 25.542C43.4461 25.59 43.6581 25.482 43.7421 25.33C44.5421 24.74 43.9081 23.97 43.7901 23.254C43.4701 22.594 42.7981 22.474 42.2701 21.98C42.2941 21.768 42.4241 21.532 42.5901 21.426C42.5541 20.482 41.5981 19.846 41.0901 19.066L41.0881 19.058ZM22.6561 19.164C21.9361 20.05 21.2401 21.028 20.7201 22.064C19.8941 23.584 19.6601 25.356 19.3201 27.092L20.7201 27.044C20.4841 26.772 20.5321 26.384 20.5321 26.03C20.8521 25.358 20.9801 24.142 21.9961 24.2C22.4801 24.094 21.9721 23.716 22.3621 23.516C23.0821 23.41 23.2701 22.736 23.8821 22.416C24.4621 22.356 24.5781 21.542 25.1561 21.484C24.1881 20.812 23.5281 19.964 22.6561 19.16V19.164ZM32.4961 19.564L32.5761 21.854L33.4501 22.174C33.7101 21.726 34.1701 21.62 34.4641 21.242C34.7361 21.112 34.7361 21.454 34.8641 21.562C35.0301 22.602 33.8641 23.072 33.2481 23.498H33.5081C34.1681 22.814 34.5481 24.348 35.2281 23.652C35.3581 22.778 36.5881 22.884 36.8561 22.024C36.6441 22.236 36.5361 22 36.3481 21.944C36.4081 21.648 36.8201 21.46 37.0081 21.26C35.6081 20.4 34.1281 19.832 32.4881 19.572L32.4961 19.564ZM31.1281 19.634C29.3481 19.894 27.6681 20.542 26.3961 21.924C26.8201 22.004 27.2461 22.184 27.5641 22.478C27.6701 22.69 27.3761 22.714 27.3521 22.844C27.6241 23.244 27.6481 22.764 27.9321 22.69C28.1921 22.95 28.4161 23.138 28.7821 22.95C28.9701 23.27 29.2661 22.974 29.5021 22.998C29.5821 22.738 29.9501 22.526 29.7981 22.23C29.9281 21.994 29.9861 21.616 30.3061 21.616C30.1181 22.608 31.0501 21.616 31.3201 22.088C31.0361 21.344 31.2501 20.354 31.1321 19.634H31.1281ZM62.9781 22.064C63.5681 25.498 61.4921 28.084 60.6421 31.08C60.1701 32.224 60.3701 33.688 59.6421 34.692C59.5941 34.112 59.9141 33.572 59.9621 32.958C60.4941 29.122 57.1661 26.846 56.3981 23.598C56.3581 24.4271 56.4098 25.2582 56.5521 26.076C56.7401 30.124 59.3961 33.416 58.6281 37.64C59.3961 36.648 59.9621 35.62 60.8821 34.654C63.9381 31.454 64.7181 26.134 62.9581 22.062L62.9781 22.064ZM0.838127 22.512C-0.261873 25.06 -0.201873 28.424 0.626127 31.08C1.34613 33.82 3.95413 35.73 5.31013 38.1C5.07413 37.108 5.12213 35.846 5.26213 34.832C6.14813 31.292 7.55213 27.872 7.33813 23.952C6.80613 26.752 4.28213 28.766 3.98613 31.672C3.79813 32.864 4.09213 34.032 4.24613 35.082C3.97413 34.55 3.71413 33.938 3.66613 33.252C3.25213 29.452 0.172127 26.644 0.834127 22.512H0.838127ZM31.0581 23.846L31.1181 23.894C31.1781 24.214 31.4141 24.694 31.1181 24.908C30.7381 25.416 29.8181 25.308 29.7021 25.994C28.7101 26.29 29.0881 27.514 28.7701 28.284C28.1301 28.438 28.3701 27.67 28.0741 27.41L27.9201 27.598C26.9201 26.854 27.1301 28.448 26.5201 28.598C27.1921 28.752 27.7701 28.362 28.4561 28.338C28.5041 28.418 28.6681 28.468 28.6101 28.598H28.7161C28.8701 28.444 28.8821 28.258 28.8701 28.044C28.9301 27.832 29.1901 27.704 29.3781 27.832C29.3181 28.044 29.4581 28.212 29.6381 28.304L29.2721 28.812C29.0841 29.024 29.3201 29.602 28.8241 29.58C28.7181 29.604 28.6361 29.52 28.6701 29.414H28.5641L28.8241 29.886C29.1201 29.862 29.0601 29.332 29.4381 29.272C29.7781 29.192 29.8181 28.788 29.7781 28.472C30.2261 28.092 30.7701 28.318 31.2641 28.26C31.3941 28.39 31.6881 28.426 31.6301 28.66C31.8181 29.04 31.5001 29.46 31.2641 29.78C31.3701 29.992 31.1101 30.16 31.1101 30.394C30.7101 30.818 30.2601 30.63 29.7101 30.76C30.3821 31.232 31.1141 31.528 32.0001 31.456C32.8501 31.516 32.4481 30.442 33.0601 30.096C33.4261 30.048 33.7321 30.144 34.1461 30.036C34.3121 29.716 34.3341 29.34 34.4061 28.976C34.0401 28.81 34.1701 28.444 34.1461 28.15C33.9341 27.89 33.9581 27.43 33.5321 27.382C33.4521 27.146 33.6981 27.042 33.6861 26.828C34.3261 26.592 33.3461 26.214 33.7461 25.828C33.0261 25.698 32.8601 24.554 31.9661 24.92C31.7541 24.624 31.1981 24.496 31.1981 24.046C31.2581 23.726 31.9781 23.858 31.8941 23.892C31.8461 23.832 31.7641 23.786 31.7881 23.704C31.5161 23.68 31.1981 23.704 31.0201 23.844L31.0581 23.846ZM22.0061 26.586C21.2261 26.846 22.0061 27.578 21.9581 28.072C21.8781 28.472 21.4741 28.152 21.2381 28.332C21.3441 28.992 20.7901 29.122 20.3301 29.24C20.1761 29.688 20.6701 29.9 20.4361 30.326C21.0021 30.906 21.4501 31.6 21.3441 32.402C21.7441 32.982 21.6401 33.842 21.7441 34.586C21.9191 34.7687 22.0546 34.9856 22.142 35.223C22.2294 35.4605 22.2669 35.7134 22.2521 35.966C22.2761 36.238 21.9801 36.332 21.8041 36.438C21.5921 36.698 21.9581 36.568 21.9581 36.778L24.8021 33.828C23.7523 32.6121 23.0369 31.144 22.7261 29.568L22.3601 29.356C22.3001 29.756 22.3121 30.356 21.9601 30.476C21.7721 30.31 21.3941 30.216 21.3941 29.862C21.5001 29.626 21.6901 29.782 21.8661 29.756C21.8421 29.568 21.8901 29.376 21.9141 29.202C21.9741 28.966 21.5741 28.802 21.8661 28.588C22.1261 28.564 22.2321 28.86 22.4201 28.988L22.9281 28.728C22.7741 28.244 23.0581 27.478 22.8801 26.948C22.8101 26.524 22.3481 26.608 22.0061 26.582V26.586ZM42.8701 27.01H43.1301H42.8701ZM42.5161 28.07L43.0821 28.73C43.0581 29.474 44.0741 29.73 44.1421 30.464C44.3541 29.768 44.3301 28.978 44.5421 28.28C43.8921 28.21 43.0561 28.42 42.5121 28.068L42.5161 28.07ZM50.1041 28.106L50.2101 28.318C50.0202 32.6466 48.282 36.7631 45.3121 39.918C46.165 40.6961 46.9838 41.5109 47.7661 42.36C50.5661 39.114 52.5221 35.468 53.1941 31.326C53.4301 30.266 53.3601 29.12 53.6661 28.106C52.6261 28.402 51.4001 28.212 50.2561 28.272L50.1041 28.106ZM45.7381 28.176C45.8681 28.6 45.6081 29.002 45.6321 29.45C45.1841 30.194 46.2121 30.382 45.9281 31.078C45.7401 31.232 45.5481 31.208 45.3141 31.126C44.7821 33.202 43.7441 35.114 42.2581 36.766H42.1041C42.4841 37.002 42.7641 37.534 43.1901 37.64V37.344C43.2701 37.284 43.3201 37.132 43.4501 37.19C44.2761 37.45 44.3361 38.594 44.4061 39.126C46.5661 36.86 47.9101 34.158 48.5861 31.232C48.8221 30.232 48.6921 29.072 49.0941 28.222C47.9841 28.282 46.7821 28.342 45.7421 28.174L45.7381 28.176ZM19.3181 28.212C19.5541 28.98 19.8021 29.806 19.6141 30.652C19.6141 30.272 20.4401 29.884 19.7801 29.552C20.0401 29.172 19.8401 28.36 20.3341 28.324C19.9441 28.404 19.6501 28.404 19.3201 28.204L19.3181 28.212ZM10.4081 28.318C10.6441 33.722 12.6381 38.454 16.1541 42.468C16.9341 41.642 17.8061 40.708 18.6541 40.028C18.2301 39.756 17.9581 39.26 17.5341 38.908C17.0021 38.802 16.6481 38.294 16.5201 37.848C16.5441 37.908 16.4601 37.954 16.4141 38.002C15.9301 38.238 15.7741 37.636 15.4581 37.448C15.1621 37.294 15.3981 36.622 14.8781 36.868C14.5821 36.384 14.0281 36.42 13.8181 35.854L13.6001 36.2C13.2201 36.176 12.9401 35.716 12.7261 35.48C11.9461 35.716 12.2541 34.63 11.8181 34.276C11.6521 33.592 11.8661 32.966 12.2181 32.436C12.4541 32.224 12.9021 32.388 12.9861 32.542C13.3861 32.696 13.1401 32.222 13.3521 32.142C13.9181 31.658 14.2021 32.33 14.5201 32.696C14.0481 31.336 13.7521 29.746 13.8241 28.282C12.7241 28.412 11.5001 28.376 10.4041 28.306L10.4081 28.318ZM14.8801 28.282L14.9861 28.436C15.0921 29.956 15.5181 31.446 15.6461 32.908C15.8341 32.778 15.7061 32.436 15.9661 32.436C16.0461 31.716 16.1541 30.89 16.6261 30.252C17.2981 30.228 17.3221 29.32 18.0421 29.378C18.2081 29.508 18.4421 29.674 18.5141 29.886C18.1481 29.462 18.1341 28.786 18.3021 28.27C17.1667 28.4213 16.0166 28.4254 14.8801 28.282ZM24.1081 29.642L24.2961 29.962C24.5561 31.022 25.1821 31.91 25.7121 32.862L26.7121 31.848C26.6881 31.718 26.7601 31.576 26.6641 31.482C26.4761 31.222 26.6041 30.762 26.3441 30.608C26.2641 30.844 26.5321 30.974 26.4041 31.162C26.0841 31.032 25.7441 30.89 25.5781 30.502C25.6381 30.018 25.2821 30.372 25.0241 30.136C25.0121 29.616 24.3521 29.956 24.1281 29.64L24.1081 29.642ZM27.6721 30.516C27.6121 30.812 27.3761 31.048 27.2001 31.284C27.4961 31.154 27.6721 30.704 28.0001 30.73L27.6721 30.516ZM56.9381 30.916C54.9181 35.256 56.3841 41.03 53.9281 45.172L54.3281 44.832C59.0961 42.224 64.8421 37.832 63.8981 31.426C63.8181 32.3 63.5321 33.078 63.1301 33.822C61.2661 36.722 58.0801 39.096 56.5301 42.118C56.4821 42.224 56.3421 42.284 56.2701 42.178L56.5901 41.778C58.8441 38.532 56.8261 34.544 56.9561 30.922L56.9381 30.916ZM36.7241 31.27C36.2521 31.93 37.1721 31.884 37.2321 32.438C37.3381 32.438 37.4681 32.486 37.5281 32.39C37.4681 32.154 37.4801 31.906 37.2681 31.73C36.9141 31.742 36.9141 31.27 36.7281 31.27H36.7241ZM6.98413 31.34C7.24413 32.744 6.79613 33.972 6.58413 35.246C5.86413 37.686 6.21813 40.546 7.64413 42.538C7.17213 42.302 6.87613 41.758 6.58413 41.264C4.82413 37.888 0.388127 35.978 0.010127 31.93C-0.013873 33.394 -0.013873 34.94 0.434127 36.26C1.66213 40.792 6.66413 43.128 10.0401 45.42C7.64413 41.29 8.92013 35.66 6.98413 31.34ZM42.3641 31.528C41.7501 31.068 41.8801 31.952 41.3501 31.894C41.1621 31.846 41.1141 31.622 41.0901 31.422C41.0421 31.906 40.6661 32.272 40.3941 32.65C39.3941 32.378 39.6741 33.75 38.6941 33.45C38.8241 33.83 39.2481 33.39 39.4621 33.51C39.6281 33.43 39.5921 33.25 39.6741 33.144C39.7801 32.744 40.2641 32.59 40.6741 32.744C40.8861 33.084 40.9461 33.512 40.9341 33.912C40.6981 34.078 40.6981 34.36 40.7221 34.632C40.4261 35.116 40.5561 36.152 39.6621 36.048C38.7301 35.708 37.7141 35.458 36.6881 35.434V35.646C37.3721 35.906 38.1281 35.906 38.6821 36.414C39.2721 36.354 40.0161 36.494 40.4621 36.154C40.5221 35.73 40.6981 35.354 40.9701 35.034C41.3501 35.082 41.2661 35.588 41.4421 35.834C42.5621 34.418 43.5421 33.06 43.9221 31.314C43.3681 31.29 42.9661 31.61 42.3881 31.526L42.3641 31.528ZM28.7341 31.48L26.6941 33.77C27.8621 34.656 29.2201 35.364 30.7301 35.6C30.7061 35.2 30.7061 34.8 30.9181 34.48C31.1301 34.35 31.4501 34.54 31.6381 34.326C31.6141 34.138 31.4841 34.138 31.3781 33.96C31.2481 33.664 31.3781 33.394 31.4261 33.192C31.5061 33.038 31.2601 32.708 31.5321 32.602C30.8721 32.922 30.2821 32.472 29.7021 32.282C29.3821 32.034 28.8161 31.976 28.7341 31.482V31.48ZM35.3081 33.77C35.5681 33.43 36.1081 33.498 36.2161 33.11C35.7441 33.03 35.2161 33.37 35.3081 33.77ZM36.5121 34.278C36.2761 34.408 36.0881 34.408 35.9581 34.678C35.6861 35.044 35.3441 34.654 35.0841 34.524C35.1641 34.63 35.3561 34.89 35.1321 35.032C34.8601 35.328 34.6001 34.902 34.3321 34.82C34.1781 35.752 33.8481 34.56 33.3321 34.772C33.1201 34.24 32.7521 34.878 32.4241 34.82C32.1641 35.032 32.1521 35.646 31.6561 35.588C31.5501 35.884 31.1481 35.776 31.1021 35.988C31.3381 36.26 31.6561 36.142 31.9021 36.094C32.3021 35.728 32.8101 35.964 33.3021 35.906C33.2541 36.674 34.1521 36.094 34.4221 36.566C34.7421 36.542 34.7421 36.226 34.8701 35.986C35.5301 35.88 36.2041 35.478 36.5701 34.972C36.6641 34.792 36.7821 34.382 36.5101 34.276L36.5121 34.278ZM25.6781 34.644C25.0061 35.47 24.1921 36.26 23.3881 36.934H23.5421C25.4061 38.55 27.7661 39.674 29.9741 40.026C29.1741 39.92 28.8541 39.13 28.4881 38.54C28.2761 38.056 29.0201 37.95 28.8881 37.44C29.1601 36.992 29.5841 36.744 30.1161 36.672C29.8561 36.72 29.6081 36.752 29.3481 36.826C28.0021 36.378 26.6481 35.786 25.6781 34.642V34.644ZM54.8981 37.334L53.1181 39.67C50.7221 42.974 50.9941 47.494 47.6661 50.314C49.3861 49.76 51.2781 49.524 53.0461 49.146C57.0581 48.132 61.2721 44.178 61.8501 40.072C61.1301 41.792 59.6201 43.058 58.0981 44.06C55.4661 45.288 52.7981 46.692 50.5701 48.64H50.3101L50.4641 48.428C54.3121 45.888 53.2721 40.968 54.9041 37.336L54.8981 37.334ZM41.3041 37.594V37.642C39.7101 38.762 42.0721 38.81 42.1041 39.79C41.8681 40.262 41.0181 40.722 41.5501 41.276C41.7161 41.464 41.4701 41.616 41.3961 41.784L43.5801 39.944C43.3081 40.132 42.9661 40.004 42.8121 39.756C42.8601 38.756 41.7021 38.364 41.3021 37.596L41.3041 37.594ZM9.02813 37.7L9.64213 39.27C10.2321 42.786 10.5161 46.67 13.7141 48.9L13.6661 48.948C12.6261 48.5 11.8361 47.638 10.9061 47.06C7.89613 45.112 3.74213 44.26 2.04613 40.51C2.51813 43.25 4.38213 45.71 6.62613 47.378C9.31613 49.75 13.0701 49.562 16.3621 50.518C15.1581 49.586 14.4741 48.524 13.9221 47.214C12.7301 43.874 11.6681 40.414 9.03613 37.702L9.02813 37.7ZM23.2841 38.396L23.5441 38.716L23.2841 38.396ZM23.6381 38.796C23.6381 39.162 24.1221 39.176 23.9341 39.622C23.2141 40.07 22.3401 39.752 21.6441 40.282C21.0041 40.622 20.4761 39.882 20.1241 39.916C23.2161 42.582 26.8501 44.364 31.0281 44.566L31.2881 44.72C31.1221 43.706 31.1821 42.514 31.2401 41.452C28.3961 41.618 25.8241 40.438 23.6401 38.796H23.6381ZM44.4661 40.684C43.9849 41.3385 43.3794 41.8917 42.6841 42.312C40.4781 43.08 40.2841 45.532 38.1041 46.348C37.2541 46.688 36.7701 45.58 36.0041 45.416C34.8601 45.604 33.6681 45.924 32.5001 45.736V49.3L32.6541 49.194C38.1301 48.958 43.0621 46.798 46.9101 43.188C46.0361 42.362 45.1041 41.512 44.4701 40.688L44.4661 40.684ZM19.4261 40.896L17.0661 43.336C21.0901 46.948 25.9061 48.896 31.3221 49.236L31.1681 48.976C31.2161 47.916 31.0881 46.792 31.2741 45.776L31.2261 45.836C26.7181 45.706 22.6001 44.03 19.4261 40.892V40.896ZM32.3361 41.664L32.5481 42.03L32.5001 44.72C33.2801 44.424 34.3641 44.448 35.0841 44.32C34.6601 43.896 34.0241 43.94 33.8561 43.306C33.5601 42.882 33.9861 42.432 33.9621 42.078C33.4541 41.83 32.7021 42.126 32.3341 41.664H32.3361ZM50.3601 44.2C47.9201 45.794 45.8161 48.508 43.6001 50.24C42.3721 51.172 40.9101 51.444 39.4701 51.868C42.6561 52.104 45.3001 53.602 48.6301 53.388C52.1941 53.234 55.4621 51.158 57.1381 47.996C54.6841 50.922 50.7301 50.756 47.1081 51.088C45.9041 51.242 44.7121 51.596 43.4961 51.596C43.5441 51.548 43.5761 51.466 43.6501 51.49C47.6041 51.17 48.7241 46.864 50.3641 44.198L50.3601 44.2ZM13.5541 44.448C15.1821 46.36 15.2541 48.888 17.5201 50.454C18.3941 51.222 19.5601 51.362 20.5301 51.764C19.4441 51.87 18.4541 51.424 17.3701 51.364C13.7241 50.916 9.54613 51.388 6.87013 48.414C8.07413 50.538 10.2221 52.38 12.4641 53.098C16.7001 54.714 20.5481 52.33 24.5961 51.978C19.9121 51.766 17.3621 46.632 13.5621 44.45L13.5541 44.448ZM44.1061 54.372C40.4861 52.72 36.2821 50.868 32.0341 52.436C29.8981 51.74 27.0901 51.74 24.9541 52.436C21.2241 54.136 16.1281 56.696 12.1861 53.852C12.9301 54.738 13.7321 55.162 14.5821 55.788C17.1301 57.44 20.8021 57.274 23.4221 55.942C25.8221 54.928 27.6821 51.894 30.7621 52.85C28.1541 54.16 25.7581 55.73 23.5981 57.984L24.9081 59.104C26.8001 56.6 29.4001 54.5 32.1401 53.272C34.8061 54.572 37.2501 56.788 39.2681 59.018L40.5781 57.898C38.4541 55.844 35.9981 54.178 33.4501 52.87C34.1101 52.704 34.9141 52.74 35.5861 52.81C38.3461 54.014 40.4601 56.43 43.5861 56.798C46.8901 57.33 49.8401 55.998 51.8821 53.578L50.3121 54.404C48.4721 55.218 45.9821 55.004 44.1041 54.392L44.1061 54.372Z" fill="#F7F7FF"/>
<path d="M27.7737 63C27.8203 62.9833 27.867 62.94 27.9137 62.87C27.9637 62.8 27.9887 62.6683 27.9887 62.475V59.905L27.5437 59.925V59.855L28.3087 59.5V62.475C28.3087 62.6683 28.3337 62.8 28.3837 62.87C28.4337 62.94 28.482 62.9833 28.5287 63H27.7737ZM29.5263 60.39C29.5263 60.5133 29.5496 60.6317 29.5963 60.745C29.6429 60.855 29.7113 60.945 29.8013 61.015C29.8913 61.085 29.9979 61.12 30.1213 61.12C30.3079 61.12 30.4763 61.0433 30.6263 60.89C30.6263 60.9433 30.5996 61.0067 30.5463 61.08C30.4963 61.1533 30.4213 61.2183 30.3213 61.275C30.2246 61.3283 30.1096 61.355 29.9763 61.355C29.8029 61.355 29.6546 61.3167 29.5313 61.24C29.4113 61.16 29.3196 61.0567 29.2563 60.93C29.1963 60.8 29.1663 60.66 29.1663 60.51C29.1663 60.34 29.2046 60.1783 29.2813 60.025C29.3613 59.8683 29.4763 59.7417 29.6263 59.645C29.7763 59.5483 29.9546 59.5 30.1613 59.5C30.3813 59.5 30.5696 59.5633 30.7263 59.69C30.8829 59.8167 31.0013 59.9833 31.0813 60.19C31.1646 60.3967 31.2063 60.6183 31.2063 60.855C31.2063 61.1417 31.1346 61.4367 30.9913 61.74C30.8479 62.04 30.6513 62.3083 30.4013 62.545C30.1513 62.7817 29.8713 62.95 29.5613 63.05L29.3663 62.96C29.6796 62.8333 29.9479 62.65 30.1713 62.41C30.3946 62.1667 30.5629 61.9017 30.6763 61.615C30.7929 61.3283 30.8513 61.05 30.8513 60.78C30.8513 60.5567 30.8196 60.3633 30.7563 60.2C30.6929 60.0333 30.6063 59.9067 30.4963 59.82C30.3896 59.73 30.2729 59.685 30.1463 59.685C29.9429 59.685 29.7879 59.7517 29.6813 59.885C29.5779 60.0183 29.5263 60.1867 29.5263 60.39ZM33.7986 61.82V62.06H33.3786V62.535C33.3786 62.7783 33.4286 62.9333 33.5286 63H32.9136C32.9402 62.9933 32.9702 62.9567 33.0036 62.89C33.0402 62.82 33.0586 62.7 33.0586 62.53V62.06H31.5486L33.3786 59.45V61.82H33.7986ZM33.0586 60.245L31.9586 61.82H33.0586V60.245ZM34.619 60.39C34.619 60.5133 34.6424 60.6317 34.689 60.745C34.7357 60.855 34.804 60.945 34.894 61.015C34.984 61.085 35.0907 61.12 35.214 61.12C35.4007 61.12 35.569 61.0433 35.719 60.89C35.719 60.9433 35.6924 61.0067 35.639 61.08C35.589 61.1533 35.514 61.2183 35.414 61.275C35.3174 61.3283 35.2024 61.355 35.069 61.355C34.8957 61.355 34.7474 61.3167 34.624 61.24C34.504 61.16 34.4124 61.0567 34.349 60.93C34.289 60.8 34.259 60.66 34.259 60.51C34.259 60.34 34.2974 60.1783 34.374 60.025C34.454 59.8683 34.569 59.7417 34.719 59.645C34.869 59.5483 35.0474 59.5 35.254 59.5C35.474 59.5 35.6624 59.5633 35.819 59.69C35.9757 59.8167 36.094 59.9833 36.174 60.19C36.2574 60.3967 36.299 60.6183 36.299 60.855C36.299 61.1417 36.2274 61.4367 36.084 61.74C35.9407 62.04 35.744 62.3083 35.494 62.545C35.244 62.7817 34.964 62.95 34.654 63.05L34.459 62.96C34.7724 62.8333 35.0407 62.65 35.264 62.41C35.4874 62.1667 35.6557 61.9017 35.769 61.615C35.8857 61.3283 35.944 61.05 35.944 60.78C35.944 60.5567 35.9124 60.3633 35.849 60.2C35.7857 60.0333 35.699 59.9067 35.589 59.82C35.4824 59.73 35.3657 59.685 35.239 59.685C35.0357 59.685 34.8807 59.7517 34.774 59.885C34.6707 60.0183 34.619 60.1867 34.619 60.39Z" fill="#F7F7FF"/>
</g>
<defs>
<clipPath id="clip0_9_162">
<rect width="64" height="64" fill="white"/>
</clipPath>
</defs>
</svg>
